<svg width="14" height="14" viewBox="0 0 14 14" fill="none" xmlns="http://www.w3.org/2000/svg">
<path fill-rule="evenodd" clip-rule="evenodd" d="M6.28311 0.441697C6.42246 0.441479 6.57237 0.441546 6.73415 0.441619L7.00078 0.441697C9.13681 0.441697 9.38998 0.449364 10.2335 0.487698C11.0135 0.523365 11.4368 0.6537 11.7188 0.763201C12.0922 0.908202 12.3583 1.08154 12.6382 1.36154C12.9182 1.64154 13.0915 1.90821 13.2368 2.28155C13.3464 2.56322 13.4769 2.98656 13.5124 3.76657C13.5507 4.60991 13.559 4.86324 13.559 6.99827C13.559 9.13329 13.5507 9.38662 13.5124 10.23C13.4767 11.01 13.3464 11.4333 13.2368 11.715C13.0918 12.0883 12.9182 12.3542 12.6382 12.634C12.3582 12.914 12.0923 13.0873 11.7188 13.2323C11.4372 13.3423 11.0135 13.4723 10.2335 13.508C9.39014 13.5463 9.13681 13.5547 7.00078 13.5547C4.8646 13.5547 4.61143 13.5463 3.76808 13.508C2.98808 13.472 2.56474 13.3417 2.28257 13.2322C1.90923 13.0872 1.64256 12.9138 1.36256 12.6338C1.08256 12.3538 0.909221 12.0878 0.763886 11.7143C0.654385 11.4326 0.523884 11.0093 0.488383 10.2293C0.45005 9.38596 0.442383 9.13262 0.442383 6.99627C0.442383 4.85991 0.45005 4.60791 0.488383 3.76457C0.52405 2.98456 0.654385 2.56122 0.763886 2.27922C0.908888 1.90588 1.08256 1.63921 1.36256 1.35921C1.64256 1.0792 1.90923 0.905869 2.28257 0.760534C2.56457 0.650533 2.98808 0.520531 3.76808 0.484698C4.50609 0.451364 4.79209 0.441364 6.28311 0.439697V0.441697ZM11.2712 1.77004C10.7412 1.77004 10.3112 2.19955 10.3112 2.72972C10.3112 3.25973 10.7412 3.68973 11.2712 3.68973C11.8012 3.68973 12.2312 3.25973 12.2312 2.72972C12.2312 2.19972 11.8012 1.76971 11.2712 1.76971V1.77004ZM2.89241 7.0001C2.89241 4.7313 4.73184 2.89181 7.00062 2.89172C9.26947 2.89172 11.1085 4.73124 11.1085 7.0001C11.1085 9.26896 9.26964 11.1076 7.00078 11.1076C4.73193 11.1076 2.89241 9.26896 2.89241 7.0001Z" fill="white"/>
</svg>
