<svg width="30" height="30" viewBox="0 0 30 30" fill="none" xmlns="http://www.w3.org/2000/svg">
<path fill-rule="evenodd" clip-rule="evenodd" d="M15 0C6.71573 0 0 6.71573 0 15C0 23.2843 6.71573 30 15 30C23.2843 30 30 23.2843 30 15C30 6.71573 23.2843 0 15 0ZM11.702 7.04833C12.5554 7.0095 12.8281 7 15.0007 7H14.9983C17.1716 7 17.4433 7.0095 18.2966 7.04833C19.1483 7.08733 19.73 7.22217 20.24 7.42C20.7666 7.62417 21.2116 7.89751 21.6567 8.34251C22.1017 8.78719 22.375 9.23352 22.58 9.7597C22.7767 10.2684 22.9117 10.8497 22.9517 11.7014C22.99 12.5547 23 12.8274 23 15.0001C23 17.1728 22.99 17.4448 22.9517 18.2981C22.9117 19.1495 22.7767 19.731 22.58 20.2398C22.375 20.7658 22.1017 21.2121 21.6567 21.6568C21.2121 22.1018 20.7665 22.3758 20.2405 22.5802C19.7315 22.778 19.1495 22.9128 18.2978 22.9518C17.4444 22.9907 17.1726 23.0002 14.9998 23.0002C12.8272 23.0002 12.5547 22.9907 11.7014 22.9518C10.8499 22.9128 10.2684 22.778 9.75936 22.5802C9.23352 22.3758 8.78719 22.1018 8.34268 21.6568C7.89784 21.2121 7.62451 20.7658 7.42 20.2396C7.22234 19.731 7.0875 19.1496 7.04833 18.298C7.00967 17.4446 7 17.1728 7 15.0001C7 12.8274 7.01 12.5546 7.04817 11.7012C7.0865 10.8499 7.2215 10.2684 7.41984 9.75953C7.62484 9.23352 7.89818 8.78719 8.34318 8.34251C8.78785 7.89768 9.23419 7.62434 9.76036 7.42C10.269 7.22217 10.8504 7.08733 11.702 7.04833Z" fill="white"/>
</svg>
